<?xml version="1.0" encoding="UTF-8" standalone="no"?>
<!DOCTYPE svg PUBLIC "-//W3C//DTD SVG 1.1//EN"
 "http://www.w3.org/Graphics/SVG/1.1/DTD/svg11.dtd">
<!-- Generated by graphviz version 2.38.0 (20140413.2041)
 -->
<!-- Title: snakemake_dag Pages: 1 -->
<svg width="606pt" height="1052pt"
 viewBox="0.00 0.00 606.16 1052.00" xmlns="http://www.w3.org/2000/svg" xmlns:xlink="http://www.w3.org/1999/xlink">
<g id="graph0" class="graph" transform="scale(1 1) rotate(0) translate(4 1048)">
<title>snakemake_dag</title>
<polygon fill="white" stroke="none" points="-4,4 -4,-1048 602.162,-1048 602.162,4 -4,4"/>
<!-- 0 -->
<g id="node1" class="node"><title>0</title>
<path fill="none" stroke="#56d8a2" stroke-width="2" stroke-dasharray="5,2" d="M371.162,-36C371.162,-36 341.162,-36 341.162,-36 335.162,-36 329.162,-30 329.162,-24 329.162,-24 329.162,-12 329.162,-12 329.162,-6 335.162,-0 341.162,-0 341.162,-0 371.162,-0 371.162,-0 377.162,-0 383.162,-6 383.162,-12 383.162,-12 383.162,-24 383.162,-24 383.162,-30 377.162,-36 371.162,-36"/>
<text text-anchor="middle" x="356.162" y="-15.5" font-family="sans" font-size="10.00">all</text>
</g>
<!-- 1 -->
<g id="node2" class="node"><title>1</title>
<path fill="none" stroke="#59d856" stroke-width="2" stroke-dasharray="5,2" d="M522.662,-396C522.662,-396 417.662,-396 417.662,-396 411.662,-396 405.662,-390 405.662,-384 405.662,-384 405.662,-372 405.662,-372 405.662,-366 411.662,-360 417.662,-360 417.662,-360 522.662,-360 522.662,-360 528.662,-360 534.662,-366 534.662,-372 534.662,-372 534.662,-384 534.662,-384 534.662,-390 528.662,-396 522.662,-396"/>
<text text-anchor="middle" x="470.162" y="-381" font-family="sans" font-size="10.00">add_adapters_to_ref</text>
<text text-anchor="middle" x="470.162" y="-370" font-family="sans" font-size="10.00">ref: BCRxV.TF_wildtype</text>
</g>
<!-- 1&#45;&gt;0 -->
<g id="edge1" class="edge"><title>1&#45;&gt;0</title>
<path fill="none" stroke="grey" stroke-width="2" d="M458.766,-359.899C442.656,-334.023 415.162,-282.852 415.162,-235 415.162,-235 415.162,-235 415.162,-161 415.162,-120.031 407.999,-109.349 391.162,-72 386.924,-62.5994 381.112,-52.9944 375.441,-44.5888"/>
<polygon fill="grey" stroke="grey" stroke-width="2" points="378.257,-42.5075 369.655,-36.3223 372.522,-46.5218 378.257,-42.5075"/>
</g>
<!-- 9 -->
<g id="node10" class="node"><title>9</title>
<path fill="none" stroke="#56d88a" stroke-width="2" stroke-dasharray="5,2" d="M533.162,-252C533.162,-252 477.162,-252 477.162,-252 471.162,-252 465.162,-246 465.162,-240 465.162,-240 465.162,-228 465.162,-228 465.162,-222 471.162,-216 477.162,-216 477.162,-216 533.162,-216 533.162,-216 539.162,-216 545.162,-222 545.162,-228 545.162,-228 545.162,-240 545.162,-240 545.162,-246 539.162,-252 533.162,-252"/>
<text text-anchor="middle" x="505.162" y="-231.5" font-family="sans" font-size="10.00">sam_to_bam</text>
</g>
<!-- 1&#45;&gt;9 -->
<g id="edge21" class="edge"><title>1&#45;&gt;9</title>
<path fill="none" stroke="grey" stroke-width="2" d="M473.387,-359.84C476.871,-341.844 482.786,-312.788 489.162,-288 491.375,-279.397 494.075,-270.098 496.623,-261.726"/>
<polygon fill="grey" stroke="grey" stroke-width="2" points="499.994,-262.672 499.611,-252.085 493.308,-260.6 499.994,-262.672"/>
</g>
<!-- 17 -->
<g id="node18" class="node"><title>17</title>
<path fill="none" stroke="#5673d8" stroke-width="2" stroke-dasharray="5,2" d="M578.162,-324C578.162,-324 510.162,-324 510.162,-324 504.162,-324 498.162,-318 498.162,-312 498.162,-312 498.162,-300 498.162,-300 498.162,-294 504.162,-288 510.162,-288 510.162,-288 578.162,-288 578.162,-288 584.162,-288 590.162,-294 590.162,-300 590.162,-300 590.162,-312 590.162,-312 590.162,-318 584.162,-324 578.162,-324"/>
<text text-anchor="middle" x="544.162" y="-309" font-family="sans" font-size="10.00">alignment_sam</text>
<text text-anchor="middle" x="544.162" y="-298" font-family="sans" font-size="10.00">id: BCRxV.TF</text>
</g>
<!-- 1&#45;&gt;17 -->
<g id="edge34" class="edge"><title>1&#45;&gt;17</title>
<path fill="none" stroke="grey" stroke-width="2" d="M488.454,-359.697C497.594,-351.05 508.802,-340.449 518.762,-331.027"/>
<polygon fill="grey" stroke="grey" stroke-width="2" points="521.221,-333.519 526.08,-324.104 516.41,-328.434 521.221,-333.519"/>
</g>
<!-- 2 -->
<g id="node3" class="node"><title>2</title>
<path fill="none" stroke="#56d8c1" stroke-width="2" stroke-dasharray="5,2" d="M132.162,-252C132.162,-252 88.1619,-252 88.1619,-252 82.1619,-252 76.1619,-246 76.1619,-240 76.1619,-240 76.1619,-228 76.1619,-228 76.1619,-222 82.1619,-216 88.1619,-216 88.1619,-216 132.162,-216 132.162,-216 138.162,-216 144.162,-222 144.162,-228 144.162,-228 144.162,-240 144.162,-240 144.162,-246 138.162,-252 132.162,-252"/>
<text text-anchor="middle" x="110.162" y="-231.5" font-family="sans" font-size="10.00">consensus</text>
</g>
<!-- 2&#45;&gt;0 -->
<g id="edge2" class="edge"><title>2&#45;&gt;0</title>
<path fill="none" stroke="grey" stroke-width="2" d="M115.796,-215.771C127.343,-183.076 156.759,-111.757 205.162,-72 238.192,-44.8696 286.059,-31.2065 318.999,-24.6224"/>
<polygon fill="grey" stroke="grey" stroke-width="2" points="319.947,-28.0059 329.132,-22.7254 318.659,-21.1254 319.947,-28.0059"/>
</g>
<!-- 3 -->
<g id="node4" class="node"><title>3</title>
<path fill="none" stroke="#d6d856" stroke-width="2" stroke-dasharray="5,2" d="M370.162,-108C370.162,-108 226.162,-108 226.162,-108 220.162,-108 214.162,-102 214.162,-96 214.162,-96 214.162,-84 214.162,-84 214.162,-78 220.162,-72 226.162,-72 226.162,-72 370.162,-72 370.162,-72 376.162,-72 382.162,-78 382.162,-84 382.162,-84 382.162,-96 382.162,-96 382.162,-102 376.162,-108 370.162,-108"/>
<text text-anchor="middle" x="298.162" y="-87.5" font-family="sans" font-size="10.00">revcomp_antisense_consensus</text>
</g>
<!-- 3&#45;&gt;0 -->
<g id="edge3" class="edge"><title>3&#45;&gt;0</title>
<path fill="none" stroke="grey" stroke-width="2" d="M312.499,-71.6966C319.452,-63.3046 327.932,-53.0705 335.562,-43.8613"/>
<polygon fill="grey" stroke="grey" stroke-width="2" points="338.305,-46.0376 341.99,-36.1043 332.914,-41.5715 338.305,-46.0376"/>
</g>
<!-- 4 -->
<g id="node5" class="node"><title>4</title>
<path fill="none" stroke="#568ad8" stroke-width="2" stroke-dasharray="5,2" d="M493.162,-108C493.162,-108 455.162,-108 455.162,-108 449.162,-108 443.162,-102 443.162,-96 443.162,-96 443.162,-84 443.162,-84 443.162,-78 449.162,-72 455.162,-72 455.162,-72 493.162,-72 493.162,-72 499.162,-72 505.162,-78 505.162,-84 505.162,-84 505.162,-96 505.162,-96 505.162,-102 499.162,-108 493.162,-108"/>
<text text-anchor="middle" x="474.162" y="-87.5" font-family="sans" font-size="10.00">qualimap</text>
</g>
<!-- 4&#45;&gt;0 -->
<g id="edge4" class="edge"><title>4&#45;&gt;0</title>
<path fill="none" stroke="grey" stroke-width="2" d="M445.296,-71.8761C429.407,-62.4504 409.532,-50.6602 392.584,-40.6065"/>
<polygon fill="grey" stroke="grey" stroke-width="2" points="393.9,-37.3176 383.514,-35.2257 390.329,-43.338 393.9,-37.3176"/>
</g>
<!-- 5 -->
<g id="node6" class="node"><title>5</title>
<path fill="none" stroke="#56a2d8" stroke-width="2" stroke-dasharray="5,2" d="M130.662,-324C130.662,-324 41.6619,-324 41.6619,-324 35.6619,-324 29.6619,-318 29.6619,-312 29.6619,-312 29.6619,-300 29.6619,-300 29.6619,-294 35.6619,-288 41.6619,-288 41.6619,-288 130.662,-288 130.662,-288 136.662,-288 142.662,-294 142.662,-300 142.662,-300 142.662,-312 142.662,-312 142.662,-318 136.662,-324 130.662,-324"/>
<text text-anchor="middle" x="86.1619" y="-309" font-family="sans" font-size="10.00">final_alignment_paf</text>
<text text-anchor="middle" x="86.1619" y="-298" font-family="sans" font-size="10.00">strand: sense</text>
</g>
<!-- 5&#45;&gt;2 -->
<g id="edge5" class="edge"><title>5&#45;&gt;2</title>
<path fill="none" stroke="grey" stroke-width="2" d="M92.0945,-287.697C94.7683,-279.898 97.9875,-270.509 100.963,-261.829"/>
<polygon fill="grey" stroke="grey" stroke-width="2" points="104.365,-262.699 104.298,-252.104 97.7434,-260.429 104.365,-262.699"/>
</g>
<!-- 6 -->
<g id="node7" class="node"><title>6</title>
<path fill="none" stroke="#d8bc56" stroke-width="2" stroke-dasharray="5,2" d="M245.662,-396C245.662,-396 150.662,-396 150.662,-396 144.662,-396 138.662,-390 138.662,-384 138.662,-384 138.662,-372 138.662,-372 138.662,-366 144.662,-360 150.662,-360 150.662,-360 245.662,-360 245.662,-360 251.662,-360 257.662,-366 257.662,-372 257.662,-372 257.662,-384 257.662,-384 257.662,-390 251.662,-396 245.662,-396"/>
<text text-anchor="middle" x="198.162" y="-375.5" font-family="sans" font-size="10.00">select_top_assembly</text>
</g>
<!-- 6&#45;&gt;2 -->
<g id="edge6" class="edge"><title>6&#45;&gt;2</title>
<path fill="none" stroke="grey" stroke-width="2" d="M190.166,-359.778C181.421,-341.48 166.583,-311.946 151.162,-288 145.052,-278.513 137.686,-268.606 130.893,-259.96"/>
<polygon fill="grey" stroke="grey" stroke-width="2" points="133.595,-257.734 124.615,-252.111 128.128,-262.106 133.595,-257.734"/>
</g>
<!-- 6&#45;&gt;5 -->
<g id="edge12" class="edge"><title>6&#45;&gt;5</title>
<path fill="none" stroke="grey" stroke-width="2" d="M170.764,-359.876C156.255,-350.808 138.246,-339.552 122.577,-329.759"/>
<polygon fill="grey" stroke="grey" stroke-width="2" points="124,-326.522 113.665,-324.19 120.29,-332.458 124,-326.522"/>
</g>
<!-- 16 -->
<g id="node17" class="node"><title>16</title>
<path fill="none" stroke="#56d873" stroke-width="2" stroke-dasharray="5,2" d="M299.162,-324C299.162,-324 211.162,-324 211.162,-324 205.162,-324 199.162,-318 199.162,-312 199.162,-312 199.162,-300 199.162,-300 199.162,-294 205.162,-288 211.162,-288 211.162,-288 299.162,-288 299.162,-288 305.162,-288 311.162,-294 311.162,-300 311.162,-300 311.162,-312 311.162,-312 311.162,-318 305.162,-324 299.162,-324"/>
<text text-anchor="middle" x="255.162" y="-303.5" font-family="sans" font-size="10.00">revcomp_assembly</text>
</g>
<!-- 6&#45;&gt;16 -->
<g id="edge32" class="edge"><title>6&#45;&gt;16</title>
<path fill="none" stroke="grey" stroke-width="2" d="M212.252,-359.697C219.085,-351.305 227.419,-341.07 234.918,-331.861"/>
<polygon fill="grey" stroke="grey" stroke-width="2" points="237.634,-334.069 241.234,-324.104 232.206,-329.649 237.634,-334.069"/>
</g>
<!-- 7 -->
<g id="node8" class="node"><title>7</title>
<path fill="none" stroke="#a7d856" stroke-width="2" stroke-dasharray="5,2" d="M322.162,-612C322.162,-612 268.162,-612 268.162,-612 262.162,-612 256.162,-606 256.162,-600 256.162,-600 256.162,-588 256.162,-588 256.162,-582 262.162,-576 268.162,-576 268.162,-576 322.162,-576 322.162,-576 328.162,-576 334.162,-582 334.162,-588 334.162,-588 334.162,-600 334.162,-600 334.162,-606 328.162,-612 322.162,-612"/>
<text text-anchor="middle" x="295.162" y="-591.5" font-family="sans" font-size="10.00">merge_fasta</text>
</g>
<!-- 7&#45;&gt;2 -->
<g id="edge7" class="edge"><title>7&#45;&gt;2</title>
<path fill="none" stroke="grey" stroke-width="2" d="M256.121,-591.681C176.147,-586.681 1.16188,-562.95 1.16188,-451 1.16188,-451 1.16188,-451 1.16188,-377 1.16188,-336.553 -3.48565,-320.814 20.1619,-288 31.701,-271.988 49.6973,-260.011 66.574,-251.532"/>
<polygon fill="grey" stroke="grey" stroke-width="2" points="68.241,-254.615 75.7866,-247.178 65.2499,-248.287 68.241,-254.615"/>
</g>
<!-- 7&#45;&gt;5 -->
<g id="edge11" class="edge"><title>7&#45;&gt;5</title>
<path fill="none" stroke="grey" stroke-width="2" d="M256.117,-577.67C235.792,-568.56 211.268,-555.711 192.162,-540 160.637,-514.077 154.101,-504.154 135.162,-468 112.04,-423.861 97.9788,-367.08 91.1676,-334.089"/>
<polygon fill="grey" stroke="grey" stroke-width="2" points="94.5957,-333.383 89.2086,-324.26 87.7308,-334.751 94.5957,-333.383"/>
</g>
<!-- 8 -->
<g id="node9" class="node"><title>8</title>
<path fill="none" stroke="#56d8c1" stroke-width="2" stroke-dasharray="5,2" d="M317.162,-180C317.162,-180 273.162,-180 273.162,-180 267.162,-180 261.162,-174 261.162,-168 261.162,-168 261.162,-156 261.162,-156 261.162,-150 267.162,-144 273.162,-144 273.162,-144 317.162,-144 317.162,-144 323.162,-144 329.162,-150 329.162,-156 329.162,-156 329.162,-168 329.162,-168 329.162,-174 323.162,-180 317.162,-180"/>
<text text-anchor="middle" x="295.162" y="-159.5" font-family="sans" font-size="10.00">consensus</text>
</g>
<!-- 7&#45;&gt;8 -->
<g id="edge19" class="edge"><title>7&#45;&gt;8</title>
<path fill="none" stroke="grey" stroke-width="2" d="M313.36,-575.598C337.518,-550.53 377.162,-501.673 377.162,-451 377.162,-451 377.162,-451 377.162,-305 377.162,-264.458 378.085,-250.726 357.162,-216 350.357,-204.707 340.301,-194.617 330.258,-186.35"/>
<polygon fill="grey" stroke="grey" stroke-width="2" points="332.308,-183.51 322.27,-180.122 328.004,-189.031 332.308,-183.51"/>
</g>
<!-- 15 -->
<g id="node16" class="node"><title>15</title>
<path fill="none" stroke="#56a2d8" stroke-width="2" stroke-dasharray="5,2" d="M336.662,-252C336.662,-252 247.662,-252 247.662,-252 241.662,-252 235.662,-246 235.662,-240 235.662,-240 235.662,-228 235.662,-228 235.662,-222 241.662,-216 247.662,-216 247.662,-216 336.662,-216 336.662,-216 342.662,-216 348.662,-222 348.662,-228 348.662,-228 348.662,-240 348.662,-240 348.662,-246 342.662,-252 336.662,-252"/>
<text text-anchor="middle" x="292.162" y="-237" font-family="sans" font-size="10.00">final_alignment_paf</text>
<text text-anchor="middle" x="292.162" y="-226" font-family="sans" font-size="10.00">strand: antisense</text>
</g>
<!-- 7&#45;&gt;15 -->
<g id="edge30" class="edge"><title>7&#45;&gt;15</title>
<path fill="none" stroke="grey" stroke-width="2" d="M304.279,-575.606C317.167,-549.357 339.162,-497.715 339.162,-451 339.162,-451 339.162,-451 339.162,-377 339.162,-336.553 333.962,-326.02 320.162,-288 316.86,-278.903 312.262,-269.421 307.745,-261.034"/>
<polygon fill="grey" stroke="grey" stroke-width="2" points="310.689,-259.128 302.753,-252.109 304.58,-262.545 310.689,-259.128"/>
</g>
<!-- 7&#45;&gt;17 -->
<g id="edge33" class="edge"><title>7&#45;&gt;17</title>
<path fill="none" stroke="grey" stroke-width="2" d="M334.333,-576.574C393.462,-549.257 502.883,-488.212 543.162,-396 551.642,-376.587 551.326,-352.442 549.203,-334.201"/>
<polygon fill="grey" stroke="grey" stroke-width="2" points="552.659,-333.638 547.798,-324.224 545.727,-334.614 552.659,-333.638"/>
</g>
<!-- 18 -->
<g id="node19" class="node"><title>18</title>
<path fill="none" stroke="#d88d56" stroke-width="2" stroke-dasharray="5,2" d="M289.162,-540C289.162,-540 213.162,-540 213.162,-540 207.162,-540 201.162,-534 201.162,-528 201.162,-528 201.162,-516 201.162,-516 201.162,-510 207.162,-504 213.162,-504 213.162,-504 289.162,-504 289.162,-504 295.162,-504 301.162,-510 301.162,-516 301.162,-516 301.162,-528 301.162,-528 301.162,-534 295.162,-540 289.162,-540"/>
<text text-anchor="middle" x="251.162" y="-519.5" font-family="sans" font-size="10.00">subsample_fasta</text>
</g>
<!-- 7&#45;&gt;18 -->
<g id="edge35" class="edge"><title>7&#45;&gt;18</title>
<path fill="none" stroke="grey" stroke-width="2" d="M284.285,-575.697C279.17,-567.559 272.966,-557.689 267.317,-548.701"/>
<polygon fill="grey" stroke="grey" stroke-width="2" points="270.198,-546.708 261.913,-540.104 264.272,-550.433 270.198,-546.708"/>
</g>
<!-- 8&#45;&gt;3 -->
<g id="edge8" class="edge"><title>8&#45;&gt;3</title>
<path fill="none" stroke="grey" stroke-width="2" d="M295.903,-143.697C296.234,-135.983 296.631,-126.712 297,-118.112"/>
<polygon fill="grey" stroke="grey" stroke-width="2" points="300.497,-118.245 297.429,-108.104 293.504,-117.945 300.497,-118.245"/>
</g>
<!-- 9&#45;&gt;4 -->
<g id="edge9" class="edge"><title>9&#45;&gt;4</title>
<path fill="none" stroke="grey" stroke-width="2" d="M496.04,-215.831C491.083,-205.691 485.333,-192.441 482.162,-180 476.966,-159.612 475.03,-135.847 474.358,-118.006"/>
<polygon fill="grey" stroke="grey" stroke-width="2" points="477.857,-117.904 474.09,-108.001 470.859,-118.092 477.857,-117.904"/>
</g>
<!-- 10 -->
<g id="node11" class="node"><title>10</title>
<path fill="none" stroke="#56c1d8" stroke-width="2" stroke-dasharray="5,2" d="M550.662,-180C550.662,-180 503.662,-180 503.662,-180 497.662,-180 491.662,-174 491.662,-168 491.662,-168 491.662,-156 491.662,-156 491.662,-150 497.662,-144 503.662,-144 503.662,-144 550.662,-144 550.662,-144 556.662,-144 562.662,-150 562.662,-156 562.662,-156 562.662,-168 562.662,-168 562.662,-174 556.662,-180 550.662,-180"/>
<text text-anchor="middle" x="527.162" y="-159.5" font-family="sans" font-size="10.00">index_bam</text>
</g>
<!-- 9&#45;&gt;10 -->
<g id="edge22" class="edge"><title>9&#45;&gt;10</title>
<path fill="none" stroke="grey" stroke-width="2" d="M510.6,-215.697C513.051,-207.898 516.002,-198.509 518.73,-189.829"/>
<polygon fill="grey" stroke="grey" stroke-width="2" points="522.127,-190.694 521.786,-180.104 515.449,-188.595 522.127,-190.694"/>
</g>
<!-- 10&#45;&gt;4 -->
<g id="edge10" class="edge"><title>10&#45;&gt;4</title>
<path fill="none" stroke="grey" stroke-width="2" d="M514.061,-143.697C507.771,-135.389 500.115,-125.277 493.197,-116.141"/>
<polygon fill="grey" stroke="grey" stroke-width="2" points="495.939,-113.964 487.112,-108.104 490.358,-118.19 495.939,-113.964"/>
</g>
<!-- 11 -->
<g id="node12" class="node"><title>11</title>
<path fill="none" stroke="#88d856" stroke-width="2" stroke-dasharray="5,2" d="M266.162,-468C266.162,-468 156.162,-468 156.162,-468 150.162,-468 144.162,-462 144.162,-456 144.162,-456 144.162,-444 144.162,-444 144.162,-438 150.162,-432 156.162,-432 156.162,-432 266.162,-432 266.162,-432 272.162,-432 278.162,-438 278.162,-444 278.162,-444 278.162,-456 278.162,-456 278.162,-462 272.162,-468 266.162,-468"/>
<text text-anchor="middle" x="211.162" y="-447.5" font-family="sans" font-size="10.00">canu_denovo_assembly</text>
</g>
<!-- 11&#45;&gt;6 -->
<g id="edge13" class="edge"><title>11&#45;&gt;6</title>
<path fill="none" stroke="grey" stroke-width="2" d="M207.948,-431.697C206.516,-423.983 204.794,-414.712 203.197,-406.112"/>
<polygon fill="grey" stroke="grey" stroke-width="2" points="206.606,-405.297 201.338,-396.104 199.723,-406.575 206.606,-405.297"/>
</g>
<!-- 12 -->
<g id="node13" class="node"><title>12</title>
<path fill="none" stroke="#d86e56" stroke-width="2" stroke-dasharray="5,2" d="M194.162,-684C194.162,-684 132.162,-684 132.162,-684 126.162,-684 120.162,-678 120.162,-672 120.162,-672 120.162,-660 120.162,-660 120.162,-654 126.162,-648 132.162,-648 132.162,-648 194.162,-648 194.162,-648 200.162,-648 206.162,-654 206.162,-660 206.162,-660 206.162,-672 206.162,-672 206.162,-678 200.162,-684 194.162,-684"/>
<text text-anchor="middle" x="163.162" y="-663.5" font-family="sans" font-size="10.00">bonito_duplex</text>
</g>
<!-- 12&#45;&gt;7 -->
<g id="edge14" class="edge"><title>12&#45;&gt;7</title>
<path fill="none" stroke="grey" stroke-width="2" d="M195.453,-647.876C213.031,-638.554 234.971,-626.919 253.791,-616.939"/>
<polygon fill="grey" stroke="grey" stroke-width="2" points="255.552,-619.967 262.747,-612.19 252.273,-613.783 255.552,-619.967"/>
</g>
<!-- 13 -->
<g id="node14" class="node"><title>13</title>
<path fill="none" stroke="#d86e56" stroke-width="2" stroke-dasharray="5,2" d="M326.162,-684C326.162,-684 264.162,-684 264.162,-684 258.162,-684 252.162,-678 252.162,-672 252.162,-672 252.162,-660 252.162,-660 252.162,-654 258.162,-648 264.162,-648 264.162,-648 326.162,-648 326.162,-648 332.162,-648 338.162,-654 338.162,-660 338.162,-660 338.162,-672 338.162,-672 338.162,-678 332.162,-684 326.162,-684"/>
<text text-anchor="middle" x="295.162" y="-663.5" font-family="sans" font-size="10.00">bonito_duplex</text>
</g>
<!-- 13&#45;&gt;7 -->
<g id="edge15" class="edge"><title>13&#45;&gt;7</title>
<path fill="none" stroke="grey" stroke-width="2" d="M295.162,-647.697C295.162,-639.983 295.162,-630.712 295.162,-622.112"/>
<polygon fill="grey" stroke="grey" stroke-width="2" points="298.662,-622.104 295.162,-612.104 291.662,-622.104 298.662,-622.104"/>
</g>
<!-- 14 -->
<g id="node15" class="node"><title>14</title>
<path fill="none" stroke="#d86e56" stroke-width="2" stroke-dasharray="5,2" d="M458.162,-684C458.162,-684 396.162,-684 396.162,-684 390.162,-684 384.162,-678 384.162,-672 384.162,-672 384.162,-660 384.162,-660 384.162,-654 390.162,-648 396.162,-648 396.162,-648 458.162,-648 458.162,-648 464.162,-648 470.162,-654 470.162,-660 470.162,-660 470.162,-672 470.162,-672 470.162,-678 464.162,-684 458.162,-684"/>
<text text-anchor="middle" x="427.162" y="-663.5" font-family="sans" font-size="10.00">bonito_duplex</text>
</g>
<!-- 14&#45;&gt;7 -->
<g id="edge16" class="edge"><title>14&#45;&gt;7</title>
<path fill="none" stroke="grey" stroke-width="2" d="M394.871,-647.876C377.292,-638.554 355.353,-626.919 336.533,-616.939"/>
<polygon fill="grey" stroke="grey" stroke-width="2" points="338.051,-613.783 327.577,-612.19 334.772,-619.967 338.051,-613.783"/>
</g>
<!-- 15&#45;&gt;8 -->
<g id="edge17" class="edge"><title>15&#45;&gt;8</title>
<path fill="none" stroke="grey" stroke-width="2" d="M292.903,-215.697C293.234,-207.983 293.631,-198.712 294,-190.112"/>
<polygon fill="grey" stroke="grey" stroke-width="2" points="297.497,-190.245 294.429,-180.104 290.504,-189.945 297.497,-190.245"/>
</g>
<!-- 16&#45;&gt;8 -->
<g id="edge18" class="edge"><title>16&#45;&gt;8</title>
<path fill="none" stroke="grey" stroke-width="2" d="M241.825,-287.704C229.411,-269.345 214.452,-239.76 226.162,-216 232.122,-203.907 242.312,-193.805 253.06,-185.774"/>
<polygon fill="grey" stroke="grey" stroke-width="2" points="255.105,-188.615 261.326,-180.039 251.115,-182.864 255.105,-188.615"/>
</g>
<!-- 16&#45;&gt;15 -->
<g id="edge31" class="edge"><title>16&#45;&gt;15</title>
<path fill="none" stroke="grey" stroke-width="2" d="M264.308,-287.697C268.565,-279.644 273.718,-269.894 278.428,-260.982"/>
<polygon fill="grey" stroke="grey" stroke-width="2" points="281.542,-262.581 283.121,-252.104 275.354,-259.31 281.542,-262.581"/>
</g>
<!-- 17&#45;&gt;9 -->
<g id="edge20" class="edge"><title>17&#45;&gt;9</title>
<path fill="none" stroke="grey" stroke-width="2" d="M534.521,-287.697C530.035,-279.644 524.603,-269.894 519.638,-260.982"/>
<polygon fill="grey" stroke="grey" stroke-width="2" points="522.616,-259.137 514.691,-252.104 516.501,-262.544 522.616,-259.137"/>
</g>
<!-- 18&#45;&gt;11 -->
<g id="edge23" class="edge"><title>18&#45;&gt;11</title>
<path fill="none" stroke="grey" stroke-width="2" d="M241.274,-503.697C236.673,-495.644 231.102,-485.894 226.009,-476.982"/>
<polygon fill="grey" stroke="grey" stroke-width="2" points="228.936,-475.05 220.936,-468.104 222.858,-478.523 228.936,-475.05"/>
</g>
<!-- 19 -->
<g id="node20" class="node"><title>19</title>
<path fill="none" stroke="#d85656" stroke-width="2" stroke-dasharray="5,2" d="M118.662,-756C118.662,-756 39.6619,-756 39.6619,-756 33.6619,-756 27.6619,-750 27.6619,-744 27.6619,-744 27.6619,-732 27.6619,-732 27.6619,-726 33.6619,-720 39.6619,-720 39.6619,-720 118.662,-720 118.662,-720 124.662,-720 130.662,-726 130.662,-732 130.662,-732 130.662,-744 130.662,-744 130.662,-750 124.662,-756 118.662,-756"/>
<text text-anchor="middle" x="79.1619" y="-735.5" font-family="sans" font-size="10.00">pseudopair_reads</text>
</g>
<!-- 19&#45;&gt;12 -->
<g id="edge24" class="edge"><title>19&#45;&gt;12</title>
<path fill="none" stroke="grey" stroke-width="2" d="M99.9259,-719.697C110.403,-710.965 123.273,-700.24 134.662,-690.75"/>
<polygon fill="grey" stroke="grey" stroke-width="2" points="137.195,-693.195 142.637,-684.104 132.714,-687.817 137.195,-693.195"/>
</g>
<!-- 20 -->
<g id="node21" class="node"><title>20</title>
<path fill="none" stroke="#bed856" stroke-width="2" stroke-dasharray="5,2" d="M183.162,-1044C183.162,-1044 35.1619,-1044 35.1619,-1044 29.1619,-1044 23.1619,-1038 23.1619,-1032 23.1619,-1032 23.1619,-1020 23.1619,-1020 23.1619,-1014 29.1619,-1008 35.1619,-1008 35.1619,-1008 183.162,-1008 183.162,-1008 189.162,-1008 195.162,-1014 195.162,-1020 195.162,-1020 195.162,-1032 195.162,-1032 195.162,-1038 189.162,-1044 183.162,-1044"/>
<text text-anchor="middle" x="109.162" y="-1029" font-family="sans" font-size="10.00">symlink_fast5</text>
<text text-anchor="middle" x="109.162" y="-1018" font-family="sans" font-size="10.00">filename: FAP38735_de9ff9d7_0</text>
</g>
<!-- 20&#45;&gt;12 -->
<g id="edge25" class="edge"><title>20&#45;&gt;12</title>
<path fill="none" stroke="grey" stroke-width="2" d="M121.527,-1007.56C128.145,-997.547 135.978,-984.512 141.162,-972 156.757,-934.356 163.162,-923.746 163.162,-883 163.162,-883 163.162,-883 163.162,-809 163.162,-768.996 163.162,-722.653 163.162,-694.08"/>
<polygon fill="grey" stroke="grey" stroke-width="2" points="166.662,-694.049 163.162,-684.049 159.662,-694.049 166.662,-694.049"/>
</g>
<!-- 31 -->
<g id="node32" class="node"><title>31</title>
<path fill="none" stroke="#56d8d8" stroke-width="2" stroke-dasharray="5,2" d="M120.162,-972C120.162,-972 52.1619,-972 52.1619,-972 46.1619,-972 40.1619,-966 40.1619,-960 40.1619,-960 40.1619,-948 40.1619,-948 40.1619,-942 46.1619,-936 52.1619,-936 52.1619,-936 120.162,-936 120.162,-936 126.162,-936 132.162,-942 132.162,-948 132.162,-948 132.162,-960 132.162,-960 132.162,-966 126.162,-972 120.162,-972"/>
<text text-anchor="middle" x="86.1619" y="-951.5" font-family="sans" font-size="10.00">basecall_guppy</text>
</g>
<!-- 20&#45;&gt;31 -->
<g id="edge45" class="edge"><title>20&#45;&gt;31</title>
<path fill="none" stroke="grey" stroke-width="2" d="M103.476,-1007.7C100.914,-999.898 97.829,-990.509 94.9772,-981.829"/>
<polygon fill="grey" stroke="grey" stroke-width="2" points="98.2286,-980.512 91.7819,-972.104 91.5784,-982.697 98.2286,-980.512"/>
</g>
<!-- 21 -->
<g id="node22" class="node"><title>21</title>
<path fill="none" stroke="#d85656" stroke-width="2" stroke-dasharray="5,2" d="M294.662,-756C294.662,-756 215.662,-756 215.662,-756 209.662,-756 203.662,-750 203.662,-744 203.662,-744 203.662,-732 203.662,-732 203.662,-726 209.662,-720 215.662,-720 215.662,-720 294.662,-720 294.662,-720 300.662,-720 306.662,-726 306.662,-732 306.662,-732 306.662,-744 306.662,-744 306.662,-750 300.662,-756 294.662,-756"/>
<text text-anchor="middle" x="255.162" y="-735.5" font-family="sans" font-size="10.00">pseudopair_reads</text>
</g>
<!-- 21&#45;&gt;13 -->
<g id="edge26" class="edge"><title>21&#45;&gt;13</title>
<path fill="none" stroke="grey" stroke-width="2" d="M265.05,-719.697C269.651,-711.644 275.222,-701.894 280.315,-692.982"/>
<polygon fill="grey" stroke="grey" stroke-width="2" points="283.465,-694.523 285.388,-684.104 277.388,-691.05 283.465,-694.523"/>
</g>
<!-- 22 -->
<g id="node23" class="node"><title>22</title>
<path fill="none" stroke="#bed856" stroke-width="2" stroke-dasharray="5,2" d="M384.162,-1044C384.162,-1044 236.162,-1044 236.162,-1044 230.162,-1044 224.162,-1038 224.162,-1032 224.162,-1032 224.162,-1020 224.162,-1020 224.162,-1014 230.162,-1008 236.162,-1008 236.162,-1008 384.162,-1008 384.162,-1008 390.162,-1008 396.162,-1014 396.162,-1020 396.162,-1020 396.162,-1032 396.162,-1032 396.162,-1038 390.162,-1044 384.162,-1044"/>
<text text-anchor="middle" x="310.162" y="-1029" font-family="sans" font-size="10.00">symlink_fast5</text>
<text text-anchor="middle" x="310.162" y="-1018" font-family="sans" font-size="10.00">filename: FAP38735_de9ff9d7_1</text>
</g>
<!-- 22&#45;&gt;13 -->
<g id="edge27" class="edge"><title>22&#45;&gt;13</title>
<path fill="none" stroke="grey" stroke-width="2" d="M316.03,-1007.74C324.504,-981.246 339.162,-928.794 339.162,-883 339.162,-883 339.162,-883 339.162,-809 339.162,-767.212 321.562,-721.482 308.624,-693.511"/>
<polygon fill="grey" stroke="grey" stroke-width="2" points="311.741,-691.915 304.279,-684.394 305.422,-694.927 311.741,-691.915"/>
</g>
<!-- 32 -->
<g id="node33" class="node"><title>32</title>
<path fill="none" stroke="#56d8d8" stroke-width="2" stroke-dasharray="5,2" d="M296.162,-972C296.162,-972 228.162,-972 228.162,-972 222.162,-972 216.162,-966 216.162,-960 216.162,-960 216.162,-948 216.162,-948 216.162,-942 222.162,-936 228.162,-936 228.162,-936 296.162,-936 296.162,-936 302.162,-936 308.162,-942 308.162,-948 308.162,-948 308.162,-960 308.162,-960 308.162,-966 302.162,-972 296.162,-972"/>
<text text-anchor="middle" x="262.162" y="-951.5" font-family="sans" font-size="10.00">basecall_guppy</text>
</g>
<!-- 22&#45;&gt;32 -->
<g id="edge46" class="edge"><title>22&#45;&gt;32</title>
<path fill="none" stroke="grey" stroke-width="2" d="M298.297,-1007.7C292.658,-999.474 285.808,-989.483 279.593,-980.421"/>
<polygon fill="grey" stroke="grey" stroke-width="2" points="282.432,-978.372 273.891,-972.104 276.659,-982.331 282.432,-978.372"/>
</g>
<!-- 23 -->
<g id="node24" class="node"><title>23</title>
<path fill="none" stroke="#d85656" stroke-width="2" stroke-dasharray="5,2" d="M466.662,-756C466.662,-756 387.662,-756 387.662,-756 381.662,-756 375.662,-750 375.662,-744 375.662,-744 375.662,-732 375.662,-732 375.662,-726 381.662,-720 387.662,-720 387.662,-720 466.662,-720 466.662,-720 472.662,-720 478.662,-726 478.662,-732 478.662,-732 478.662,-744 478.662,-744 478.662,-750 472.662,-756 466.662,-756"/>
<text text-anchor="middle" x="427.162" y="-735.5" font-family="sans" font-size="10.00">pseudopair_reads</text>
</g>
<!-- 23&#45;&gt;14 -->
<g id="edge28" class="edge"><title>23&#45;&gt;14</title>
<path fill="none" stroke="grey" stroke-width="2" d="M427.162,-719.697C427.162,-711.983 427.162,-702.712 427.162,-694.112"/>
<polygon fill="grey" stroke="grey" stroke-width="2" points="430.662,-694.104 427.162,-684.104 423.662,-694.104 430.662,-694.104"/>
</g>
<!-- 24 -->
<g id="node25" class="node"><title>24</title>
<path fill="none" stroke="#bed856" stroke-width="2" stroke-dasharray="5,2" d="M586.162,-1044C586.162,-1044 432.162,-1044 432.162,-1044 426.162,-1044 420.162,-1038 420.162,-1032 420.162,-1032 420.162,-1020 420.162,-1020 420.162,-1014 426.162,-1008 432.162,-1008 432.162,-1008 586.162,-1008 586.162,-1008 592.162,-1008 598.162,-1014 598.162,-1020 598.162,-1020 598.162,-1032 598.162,-1032 598.162,-1038 592.162,-1044 586.162,-1044"/>
<text text-anchor="middle" x="509.162" y="-1029" font-family="sans" font-size="10.00">symlink_fast5</text>
<text text-anchor="middle" x="509.162" y="-1018" font-family="sans" font-size="10.00">filename: FAP38735_de9ff9d7_10</text>
</g>
<!-- 24&#45;&gt;14 -->
<g id="edge29" class="edge"><title>24&#45;&gt;14</title>
<path fill="none" stroke="grey" stroke-width="2" d="M510.347,-1007.96C512.096,-981.315 515.162,-928.155 515.162,-883 515.162,-883 515.162,-883 515.162,-809 515.162,-767.533 509.749,-754.775 487.162,-720 479.993,-708.963 469.919,-698.84 460.07,-690.465"/>
<polygon fill="grey" stroke="grey" stroke-width="2" points="462.248,-687.725 452.279,-684.139 457.836,-693.159 462.248,-687.725"/>
</g>
<!-- 33 -->
<g id="node34" class="node"><title>33</title>
<path fill="none" stroke="#56d8d8" stroke-width="2" stroke-dasharray="5,2" d="M472.162,-972C472.162,-972 404.162,-972 404.162,-972 398.162,-972 392.162,-966 392.162,-960 392.162,-960 392.162,-948 392.162,-948 392.162,-942 398.162,-936 404.162,-936 404.162,-936 472.162,-936 472.162,-936 478.162,-936 484.162,-942 484.162,-948 484.162,-948 484.162,-960 484.162,-960 484.162,-966 478.162,-972 472.162,-972"/>
<text text-anchor="middle" x="438.162" y="-951.5" font-family="sans" font-size="10.00">basecall_guppy</text>
</g>
<!-- 24&#45;&gt;33 -->
<g id="edge47" class="edge"><title>24&#45;&gt;33</title>
<path fill="none" stroke="grey" stroke-width="2" d="M491.611,-1007.7C482.927,-999.135 472.299,-988.656 462.814,-979.304"/>
<polygon fill="grey" stroke="grey" stroke-width="2" points="465.089,-976.633 455.511,-972.104 460.174,-981.617 465.089,-976.633"/>
</g>
<!-- 25 -->
<g id="node26" class="node"><title>25</title>
<path fill="none" stroke="#70d856" stroke-width="2" stroke-dasharray="5,2" d="M123.162,-828C123.162,-828 27.1619,-828 27.1619,-828 21.1619,-828 15.1619,-822 15.1619,-816 15.1619,-816 15.1619,-804 15.1619,-804 15.1619,-798 21.1619,-792 27.1619,-792 27.1619,-792 123.162,-792 123.162,-792 129.162,-792 135.162,-798 135.162,-804 135.162,-804 135.162,-816 135.162,-816 135.162,-822 129.162,-828 123.162,-828"/>
<text text-anchor="middle" x="75.1619" y="-807.5" font-family="sans" font-size="10.00">initial_alignment_paf</text>
</g>
<!-- 25&#45;&gt;19 -->
<g id="edge36" class="edge"><title>25&#45;&gt;19</title>
<path fill="none" stroke="grey" stroke-width="2" d="M76.1506,-791.697C76.5914,-783.983 77.1212,-774.712 77.6126,-766.112"/>
<polygon fill="grey" stroke="grey" stroke-width="2" points="81.1082,-766.288 78.1845,-756.104 74.1196,-765.888 81.1082,-766.288"/>
</g>
<!-- 26 -->
<g id="node27" class="node"><title>26</title>
<path fill="none" stroke="#70d856" stroke-width="2" stroke-dasharray="5,2" d="M299.162,-828C299.162,-828 203.162,-828 203.162,-828 197.162,-828 191.162,-822 191.162,-816 191.162,-816 191.162,-804 191.162,-804 191.162,-798 197.162,-792 203.162,-792 203.162,-792 299.162,-792 299.162,-792 305.162,-792 311.162,-798 311.162,-804 311.162,-804 311.162,-816 311.162,-816 311.162,-822 305.162,-828 299.162,-828"/>
<text text-anchor="middle" x="251.162" y="-807.5" font-family="sans" font-size="10.00">initial_alignment_paf</text>
</g>
<!-- 26&#45;&gt;21 -->
<g id="edge37" class="edge"><title>26&#45;&gt;21</title>
<path fill="none" stroke="grey" stroke-width="2" d="M252.151,-791.697C252.591,-783.983 253.121,-774.712 253.613,-766.112"/>
<polygon fill="grey" stroke="grey" stroke-width="2" points="257.108,-766.288 254.184,-756.104 250.12,-765.888 257.108,-766.288"/>
</g>
<!-- 27 -->
<g id="node28" class="node"><title>27</title>
<path fill="none" stroke="#70d856" stroke-width="2" stroke-dasharray="5,2" d="M475.162,-828C475.162,-828 379.162,-828 379.162,-828 373.162,-828 367.162,-822 367.162,-816 367.162,-816 367.162,-804 367.162,-804 367.162,-798 373.162,-792 379.162,-792 379.162,-792 475.162,-792 475.162,-792 481.162,-792 487.162,-798 487.162,-804 487.162,-804 487.162,-816 487.162,-816 487.162,-822 481.162,-828 475.162,-828"/>
<text text-anchor="middle" x="427.162" y="-807.5" font-family="sans" font-size="10.00">initial_alignment_paf</text>
</g>
<!-- 27&#45;&gt;23 -->
<g id="edge38" class="edge"><title>27&#45;&gt;23</title>
<path fill="none" stroke="grey" stroke-width="2" d="M427.162,-791.697C427.162,-783.983 427.162,-774.712 427.162,-766.112"/>
<polygon fill="grey" stroke="grey" stroke-width="2" points="430.662,-766.104 427.162,-756.104 423.662,-766.104 430.662,-766.104"/>
</g>
<!-- 28 -->
<g id="node29" class="node"><title>28</title>
<path fill="none" stroke="#d8a456" stroke-width="2" stroke-dasharray="5,2" d="M101.662,-900C101.662,-900 56.6619,-900 56.6619,-900 50.6619,-900 44.6619,-894 44.6619,-888 44.6619,-888 44.6619,-876 44.6619,-876 44.6619,-870 50.6619,-864 56.6619,-864 56.6619,-864 101.662,-864 101.662,-864 107.662,-864 113.662,-870 113.662,-876 113.662,-876 113.662,-888 113.662,-888 113.662,-894 107.662,-900 101.662,-900"/>
<text text-anchor="middle" x="79.1619" y="-879.5" font-family="sans" font-size="10.00">filter_fastq</text>
</g>
<!-- 28&#45;&gt;25 -->
<g id="edge39" class="edge"><title>28&#45;&gt;25</title>
<path fill="none" stroke="grey" stroke-width="2" d="M78.1731,-863.697C77.7323,-855.983 77.2026,-846.712 76.7112,-838.112"/>
<polygon fill="grey" stroke="grey" stroke-width="2" points="80.2042,-837.888 76.1393,-828.104 73.2156,-838.288 80.2042,-837.888"/>
</g>
<!-- 29 -->
<g id="node30" class="node"><title>29</title>
<path fill="none" stroke="#d8a456" stroke-width="2" stroke-dasharray="5,2" d="M280.662,-900C280.662,-900 235.662,-900 235.662,-900 229.662,-900 223.662,-894 223.662,-888 223.662,-888 223.662,-876 223.662,-876 223.662,-870 229.662,-864 235.662,-864 235.662,-864 280.662,-864 280.662,-864 286.662,-864 292.662,-870 292.662,-876 292.662,-876 292.662,-888 292.662,-888 292.662,-894 286.662,-900 280.662,-900"/>
<text text-anchor="middle" x="258.162" y="-879.5" font-family="sans" font-size="10.00">filter_fastq</text>
</g>
<!-- 29&#45;&gt;26 -->
<g id="edge40" class="edge"><title>29&#45;&gt;26</title>
<path fill="none" stroke="grey" stroke-width="2" d="M256.432,-863.697C255.66,-855.983 254.733,-846.712 253.873,-838.112"/>
<polygon fill="grey" stroke="grey" stroke-width="2" points="257.35,-837.706 252.872,-828.104 250.385,-838.403 257.35,-837.706"/>
</g>
<!-- 30 -->
<g id="node31" class="node"><title>30</title>
<path fill="none" stroke="#d8a456" stroke-width="2" stroke-dasharray="5,2" d="M456.662,-900C456.662,-900 411.662,-900 411.662,-900 405.662,-900 399.662,-894 399.662,-888 399.662,-888 399.662,-876 399.662,-876 399.662,-870 405.662,-864 411.662,-864 411.662,-864 456.662,-864 456.662,-864 462.662,-864 468.662,-870 468.662,-876 468.662,-876 468.662,-888 468.662,-888 468.662,-894 462.662,-900 456.662,-900"/>
<text text-anchor="middle" x="434.162" y="-879.5" font-family="sans" font-size="10.00">filter_fastq</text>
</g>
<!-- 30&#45;&gt;27 -->
<g id="edge41" class="edge"><title>30&#45;&gt;27</title>
<path fill="none" stroke="grey" stroke-width="2" d="M432.432,-863.697C431.66,-855.983 430.733,-846.712 429.873,-838.112"/>
<polygon fill="grey" stroke="grey" stroke-width="2" points="433.35,-837.706 428.872,-828.104 426.385,-838.403 433.35,-837.706"/>
</g>
<!-- 31&#45;&gt;28 -->
<g id="edge42" class="edge"><title>31&#45;&gt;28</title>
<path fill="none" stroke="grey" stroke-width="2" d="M84.4315,-935.697C83.6602,-927.983 82.7331,-918.712 81.8731,-910.112"/>
<polygon fill="grey" stroke="grey" stroke-width="2" points="85.3501,-909.706 80.8723,-900.104 78.3848,-910.403 85.3501,-909.706"/>
</g>
<!-- 32&#45;&gt;29 -->
<g id="edge43" class="edge"><title>32&#45;&gt;29</title>
<path fill="none" stroke="grey" stroke-width="2" d="M261.173,-935.697C260.732,-927.983 260.203,-918.712 259.711,-910.112"/>
<polygon fill="grey" stroke="grey" stroke-width="2" points="263.204,-909.888 259.139,-900.104 256.216,-910.288 263.204,-909.888"/>
</g>
<!-- 33&#45;&gt;30 -->
<g id="edge44" class="edge"><title>33&#45;&gt;30</title>
<path fill="none" stroke="grey" stroke-width="2" d="M437.173,-935.697C436.732,-927.983 436.203,-918.712 435.711,-910.112"/>
<polygon fill="grey" stroke="grey" stroke-width="2" points="439.204,-909.888 435.139,-900.104 432.216,-910.288 439.204,-909.888"/>
</g>
</g>
</svg>
